{
  "accessors": [
    {
      "bufferView": 2,
      "componentType": 5126,
      "count": 31061,
      "max": [
        1.264858603477478,
        1.2642052173614502,
        2.263434410095215
      ],
      "min": [
        -1.264858603477478,
        -1.2642054557800293,
        -0.2647005021572113
      ],
      "type": "VEC3"
    },
    {
      "bufferView": 2,
      "byteOffset": 372732,
      "componentType": 5126,
      "count": 31061,
      "max": [
        0.999943733215332,
        0.9998939633369446,
        0.999947190284729
      ],
      "min": [
        -0.999943733215332,
        -0.9998939633369446,
        -0.999947190284729
      ],
      "type": "VEC3"
    },
    {
      "bufferView": 1,
      "componentType": 5126,
      "count": 31061,
      "max": [
        0.9951067566871643,
        0.993012547492981
      ],
      "min": [
        0.004893271252512932,
        0.004893199540674686
      ],
      "type": "VEC2"
    },
    {
      "bufferView": 1,
      "byteOffset": 248488,
      "componentType": 5126,
      "count": 31061,
      "max": [
        0.9951067566871643,
        0.993012547492981
      ],
      "min": [
        0.004893271252512932,
        0.004893199540674686
      ],
      "type": "VEC2"
    },
    {
      "bufferView": 0,
      "componentType": 5125,
      "count": 115200,
      "type": "SCALAR"
    }
  ],
  "asset": {
    "extras": {
      "author": "B1Blender (https://sketchfab.com/B1Blender)",
      "license": "CC-BY-4.0 (http://creativecommons.org/licenses/by/4.0/)",
      "source": "https://sketchfab.com/3d-models/free-3d-golf-ball-model-with-pbr-texture-5511abe5c04e4257b90db94dbd173540",
      "title": "Free 3D Golf Ball Model with PBR Texture !"
    },
    "generator": "Sketchfab-16.15.0",
    "version": "2.0"
  },
  "bufferViews": [
    {
      "buffer": 0,
      "byteLength": 460800,
      "name": "floatBufferViews",
      "target": 34963
    },
    {
      "buffer": 0,
      "byteLength": 496976,
      "byteOffset": 460800,
      "byteStride": 8,
      "name": "floatBufferViews",
      "target": 34962
    },
    {
      "buffer": 0,
      "byteLength": 745464,
      "byteOffset": 957776,
      "byteStride": 12,
      "name": "floatBufferViews",
      "target": 34962
    }
  ],
  "buffers": [
    {
      "byteLength": 1703240,
      "uri": "scene.bin"
    }
  ],
  "images": [
    {
      "uri": "textures/Material.002_baseColor.png"
    },
    {
      "uri": "textures/Material.002_metallicRoughness.png"
    }
  ],
  "materials": [
    {
      "doubleSided": true,
      "name": "Material.002",
      "pbrMetallicRoughness": {
        "baseColorTexture": {
          "index": 0
        },
        "metallicRoughnessTexture": {
          "index": 1
        }
      }
    }
  ],
  "meshes": [
    {
      "name": "golf ball_Material.002_0",
      "primitives": [
        {
          "attributes": {
            "NORMAL": 1,
            "POSITION": 0,
            "TEXCOORD_0": 2,
            "TEXCOORD_1": 3
          },
          "indices": 4,
          "material": 0,
          "mode": 4
        }
      ]
    }
  ],
  "nodes": [
    {
      "children": [
        1
      ],
      "matrix": [
        0.20147119462490082,
        0.0,
        0.0,
        0.0,
        0.0,
        4.4735591814260193e-17,
        -0.20147119462490082,
        0.0,
        0.0,
        0.20147119462490082,
        4.4735591814260193e-17,
        0.0,
        0.0,
        0.0,
        0.0,
        1.0
      ],
      "name": "Sketchfab_model"
    },
    {
      "children": [
        2
      ],
      "matrix": [
        0.009999999776482582,
        0.0,
        0.0,
        0.0,
        0.0,
        0.0,
        0.009999999776482582,
        0.0,
        0.0,
        -0.009999999776482582,
        0.0,
        0.0,
        0.0,
        0.0,
        0.0,
        1.0
      ],
      "name": "543ca86bca2d4205bbaabba699b11985.fbx"
    },
    {
      "children": [
        3
      ],
      "name": "RootNode"
    },
    {
      "children": [
        4
      ],
      "matrix": [
        100.0,
        0.0,
        0.0,
        0.0,
        0.0,
        -1.629206793918314e-05,
        -99.99999999999868,
        0.0,
        0.0,
        99.99999999999868,
        -1.629206793918314e-05,
        0.0,
        0.0,
        0.0,
        0.0,
        1.0
      ],
      "name": "golf ball"
    },
    {
      "mesh": 0,
      "name": "golf ball_Material.002_0"
    }
  ],
  "samplers": [
    {
      "magFilter": 9729,
      "minFilter": 9987,
      "wrapS": 10497,
      "wrapT": 10497
    }
  ],
  "scene": 0,
  "scenes": [
    {
      "name": "Sketchfab_Scene",
      "nodes": [
        0
      ]
    }
  ],
  "textures": [
    {
      "sampler": 0,
      "source": 0
    },
    {
      "sampler": 0,
      "source": 1
    }
  ]
}
